P2

11 10
15
0 0 0 0 10 10 10 0 0 0 0
0 0 0 10 7 7 7 10 0 0 0
0 0 10 7 7 7 7 7 10 0 0
0 10 7 15 15 7 15 15 7 10 0
10 7 7 15 15 7 15 15 7 7 10
10 7 7 7 7 7 7 7 7 7 10
0 10 7 15 7 7 7 15 7 10 0
0 0 10 7 15 15 15 7 10 0 0
0 0 0 10 7 7 7 10 0 0 0
0 0 0 0 10 10 10 0 0 0 0