P2
9 8
15

0 0 0 0 0 0 0 0 0
0 0 15 15 0 15 15 0 0
0 15 10 10 15 10 10 15 0
0 15 10 10 10 10 10 15 0
0 0 15 10 10 10 15 0 0
0 0 0 15 10 15 0 0 0
0 0 0 0 15 0 0 0 0
0 0 0 0 0 0 0 0 0