P3
9 8
255

255 255 0
255 255 0
255 255 0
255 255 0
255 255 0
255 255 0
255 255 0
255 255 0
255 255 0
255 255 0
255 255 0
0 0 255
0 0 255
255 255 0
0 0 255
0 0 255
255 255 0
255 255 0
255 255 0
0 0 255
150 200 255
150 200 255
0 0 255
150 200 255
150 200 255
0 0 255
255 255 0
255 255 0
0 0 255
150 200 255
150 200 255
150 200 255
150 200 255
150 200 255
0 0 255
255 255 0
255 255 0
255 255 0
0 0 255
150 200 255
150 200 255
150 200 255
0 0 255
255 255 0
255 255 0
255 255 0
255 255 0
255 255 0
0 0 255
150 200 255
0 0 255
255 255 0
255 255 0
255 255 0
255 255 0
255 255 0
255 255 0
255 255 0
0 0 255
255 255 0
255 255 0
255 255 0
255 255 0
255 255 0
255 255 0
255 255 0
255 255 0
255 255 0
255 255 0
255 255 0
255 255 0
255 255 0
