P3
11 10
255

255 255 255
255 255 255
255 255 255
255 255 255
255 255 0
255 255 0
255 255 0 
255 255 255
255 255 255
255 255 255
255 255 255
255 255 255
255 255 255
255 255 255
255 255 0
255 255 0
255 255 0 
255 255 0 
255 255 0 
255 255 255
255 255 255
255 255 255
255 255 255
255 255 255
255 255 0
255 255 0
255 255 0 
255 255 0 
255 255 0 
255 255 0 
255 255 0 
255 255 255
255 255 255
255 255 255
255 255 0 
255 255 0 
100 150 255 
100 150 255
255 255 0 
100 150 255 
100 150 255
255 255 0 
255 255 0 
255 255 255
255 255 0 
255 255 0 
255 255 0 
100 150 255 
100 150 255
255 255 0
100 150 255
100 150 255
255 255 0
255 255 0 
255 255 0 
255 255 0 
255 255 0 
255 255 0 
255 255 0 
255 255 0 
255 255 0 
255 255 0 
255 255 0 
255 255 0 
255 255 0 
255 255 0 
255 255 255
255 255 0 
255 255 0 
255 0 0
255 255 0 
255 255 0 
255 255 0
255 0 0 
255 255 0 
255 255 0 
255 255 255 
255 255 255
255 255 255
255 255 0
255 255 0 
255 0 0 
255 0 0
255 0 0
255 255 0 
255 255 0
255 255 255
255 255 255
255 255 255
255 255 255
255 255 255
255 255 0 
255 255 0
255 255 0 
255 255 0 
255 255 0
255 255 255
255 255 255
255 255 255
255 255 255
255 255 255
255 255 255
255 255 255
255 255 0 
255 255 0 
255 255 0
255 255 255
255 255 255
255 255 255
255 255 255


